<?xml version="1.0" encoding="iso-8859-1"?>
<!-- Uploaded to: SVG Repo, www.svgrepo.com, Generator: SVG Repo Mixer Tools -->
<svg height="800px" width="800px" version="1.1" id="Layer_1" xmlns="http://www.w3.org/2000/svg" xmlns:xlink="http://www.w3.org/1999/xlink" 
	 viewBox="0 0 512 512" xml:space="preserve">
<circle style="fill:#006C70;" cx="256" cy="256" r="256"/>
<path style="fill:#121149;" d="M228.661,220.039c-0.262-0.262-0.502-0.502-0.705-0.705
	C228.143,219.524,228.385,219.764,228.661,220.039z"/>
<path style="fill:#023737;" d="M297.731,508.595c83.494-13.691,153.4-67.758,188.976-141.51L265.514,145.894l-31.565,79.434
	l-33.942,21.773l36.681,36.681l-61.281,20.625l34.488,34.488L150,360.865L297.731,508.595z"/>
<path style="fill:#FF9811;" d="M256.002,341.333L256.002,341.333c-7.854,0-14.222-6.368-14.222-14.222V156.444
	c0-7.854,6.368-14.222,14.222-14.222l0,0c7.854,0,14.222,6.368,14.222,14.222v170.667
	C270.222,334.965,263.856,341.333,256.002,341.333z"/>
<path style="fill:#FF5023;" d="M256,142.222c-0.193,0-0.383,0.021-0.574,0.029v199.052c0.191,0.007,0.381,0.029,0.574,0.029
	c7.854,0,14.222-6.368,14.222-14.222V156.444C270.222,148.59,263.856,142.222,256,142.222z"/>
<path style="fill:#EA348B;" d="M341.335,369.778H170.667c-15.71,0-28.444-12.734-28.444-28.444l0,0
	c0-15.71,12.734-28.444,28.444-28.444h170.667c15.71,0,28.444,12.734,28.444,28.444l0,0
	C369.778,357.043,357.043,369.778,341.335,369.778z"/>
<path style="fill:#FFDA44;" d="M316.338,312.889H195.665c-15.71,0-28.444-12.734-28.444-28.444l0,0
	c0-15.71,12.734-28.444,28.444-28.444h120.673c15.71,0,28.444,12.734,28.444,28.444l0,0
	C344.781,300.154,332.047,312.889,316.338,312.889z"/>
<path style="fill:#1FDBE2;" d="M291.342,256h-70.68c-15.71,0-28.444-12.734-28.444-28.444l0,0c0-15.71,12.734-28.444,28.444-28.444
	h70.68c15.71,0,28.444,12.734,28.444,28.444l0,0C319.785,243.266,307.05,256,291.342,256z"/>
<path style="fill:#C11D68;" d="M341.333,312.889h-85.907v56.889h85.907c15.71,0,28.444-12.734,28.444-28.444l0,0
	C369.778,325.623,357.043,312.889,341.333,312.889z"/>
<path style="fill:#E5BF1F;" d="M316.337,256h-60.911v56.889h60.911c15.71,0,28.444-12.734,28.444-28.444l0,0
	C344.781,268.734,332.047,256,316.337,256z"/>
<path style="fill:#22BFBF;" d="M291.34,199.111h-35.914V256h35.914c15.71,0,28.444-12.734,28.444-28.444l0,0
	C319.785,211.846,307.05,199.111,291.34,199.111z"/>
</svg>