<?xml version="1.0" standalone="no"?>
<!DOCTYPE svg PUBLIC "-//W3C//DTD SVG 20010904//EN"
 "http://www.w3.org/TR/2001/REC-SVG-20010904/DTD/svg10.dtd">
<svg version="1.0" xmlns="http://www.w3.org/2000/svg"
 width="561.000000pt" height="561.000000pt" viewBox="0 0 561.000000 561.000000"
 preserveAspectRatio="xMidYMid meet">
<metadata>
Created by potrace 1.11, written by Peter Selinger 2001-2013
</metadata>
<g transform="translate(0.000000,561.000000) scale(0.100000,-0.100000)"
fill="#000000" stroke="none">
<path d="M2619 5596 c-2 -2 -38 -7 -81 -10 -90 -7 -128 -12 -228 -31 -41 -8
-86 -16 -100 -19 -81 -14 -344 -94 -417 -127 -24 -10 -50 -19 -58 -19 -8 0
-15 -4 -15 -9 0 -5 -11 -12 -25 -15 -30 -8 -194 -88 -285 -140 -259 -148 -535
-379 -736 -617 -74 -87 -232 -303 -242 -329 -3 -8 -11 -22 -17 -30 -29 -34
-139 -252 -189 -374 -105 -254 -172 -516 -203 -791 -10 -91 -9 -490 1 -580 59
-513 253 -1002 555 -1395 36 -47 70 -90 76 -96 5 -7 32 -37 58 -68 54 -62 223
-229 277 -273 19 -15 46 -38 60 -51 14 -12 75 -58 135 -100 321 -227 675 -384
1045 -461 209 -44 335 -56 580 -56 233 0 304 6 495 40 137 25 175 34 298 70
908 270 1614 973 1890 1886 19 64 38 133 41 154 4 20 8 41 11 45 7 12 43 238
52 331 4 46 8 167 8 269 0 253 -12 372 -57 580 -11 52 -21 100 -22 105 -20 92
-84 280 -143 418 -193 452 -495 835 -908 1149 -313 238 -790 443 -1172 504
-26 5 -50 9 -53 9 -3 1 -32 5 -65 9 -33 4 -71 10 -85 13 -30 6 -476 14 -481 9z
m291 -1106 c237 -27 425 -116 593 -279 404 -392 402 -1036 -5 -1427 -192 -184
-421 -276 -688 -276 -280 0 -505 94 -705 296 -121 122 -187 228 -238 383 -118
356 -33 730 227 1001 164 171 372 274 604 302 97 11 118 11 212 0z m180 -2316
c616 -88 1158 -489 1431 -1058 l43 -89 -79 -74 c-335 -312 -791 -534 -1257
-612 -758 -127 -1547 103 -2093 612 l-79 74 42 88 c268 558 786 949 1397 1055
168 29 406 31 595 4z"/>
</g>
</svg>
