<?xml version="1.0" standalone="no"?>
<!DOCTYPE svg PUBLIC "-//W3C//DTD SVG 20010904//EN"
 "http://www.w3.org/TR/2001/REC-SVG-20010904/DTD/svg10.dtd">
<svg version="1.0" xmlns="http://www.w3.org/2000/svg"
 width="1553.000000pt" height="2070.000000pt" viewBox="0 0 1553.000000 2070.000000"
 preserveAspectRatio="xMidYMid meet">

<g transform="translate(0.000000,2070.000000) scale(0.100000,-0.100000)"
fill="#000000" stroke="none">
<path d="M8035 19511 c-23 -10 -74 -54 -120 -103 -85 -90 -130 -116 -320 -185
-80 -29 -135 -28 -345 7 -157 27 -278 30 -310 9 -14 -9 -36 -18 -49 -22 -36
-9 -156 19 -230 53 -35 17 -71 30 -81 30 -9 0 -59 -22 -111 -49 -144 -76 -186
-77 -293 -7 l-53 36 -58 -20 c-76 -26 -150 -26 -193 0 -35 22 -142 60 -167 60
-8 0 -32 -9 -52 -20 -21 -11 -42 -20 -48 -20 -5 -1 -34 -23 -63 -51 -53 -48
-54 -50 -47 -92 4 -23 12 -51 18 -62 13 -24 26 -105 20 -122 -2 -6 -22 -24
-44 -39 -21 -14 -39 -33 -39 -40 0 -16 -31 -34 -59 -34 -14 0 -37 -21 -67 -59
-39 -51 -120 -121 -139 -121 -3 0 -18 -9 -33 -19 -15 -10 -47 -22 -72 -25 -24
-4 -50 -12 -57 -17 -7 -7 -31 -9 -58 -5 -25 3 -66 9 -91 12 -25 3 -56 2 -68
-4 -11 -6 -42 -12 -67 -15 -25 -2 -67 -17 -94 -33 -27 -16 -54 -29 -60 -30
-30 -5 -85 -36 -120 -69 -22 -20 -75 -58 -119 -84 -76 -45 -80 -49 -110 -117
-39 -89 -116 -186 -192 -244 -32 -25 -99 -78 -148 -117 -50 -40 -96 -73 -102
-73 -7 0 -25 -11 -41 -24 -15 -13 -45 -26 -66 -30 -37 -7 -111 -41 -139 -65
-24 -20 -117 -81 -125 -81 -4 0 -24 -18 -44 -40 -26 -28 -41 -55 -48 -91 -6
-28 -18 -60 -26 -72 -8 -12 -15 -28 -15 -36 0 -18 -90 -195 -101 -199 -5 -2
-19 -25 -33 -50 -82 -162 -107 -206 -121 -221 -8 -9 -29 -34 -46 -56 -17 -22
-67 -65 -111 -95 -45 -30 -88 -68 -97 -85 -9 -16 -33 -58 -54 -91 -20 -34 -37
-65 -37 -69 0 -7 -16 -43 -64 -145 -31 -64 -47 -90 -56 -90 -17 0 -58 -74 -65
-115 -3 -23 1 -76 10 -125 26 -140 26 -138 -20 -225 -23 -44 -46 -80 -51 -80
-54 -1 -105 -188 -60 -220 29 -21 20 -61 -19 -84 -19 -11 -35 -25 -35 -31 0
-5 -17 -21 -39 -34 -27 -18 -40 -34 -45 -57 -3 -18 -13 -40 -20 -48 -8 -9 -35
-56 -60 -106 -40 -78 -46 -98 -46 -151 0 -48 -7 -74 -31 -125 -42 -84 -47
-138 -20 -214 31 -87 27 -149 -13 -253 -43 -109 -55 -215 -32 -282 8 -25 18
-65 21 -90 4 -25 15 -71 26 -103 10 -31 19 -68 19 -82 0 -14 9 -51 20 -84 22
-64 28 -100 35 -206 2 -38 7 -101 11 -138 5 -53 3 -72 -9 -85 -37 -42 -46 -75
-57 -194 -5 -48 -13 -95 -18 -105 -5 -10 -12 -35 -16 -56 -9 -49 -57 -150 -94
-196 -34 -43 -38 -51 -135 -251 -88 -182 -131 -317 -147 -455 -6 -55 -15 -118
-21 -140 -13 -51 -90 -281 -122 -365 -14 -36 -28 -88 -32 -115 -4 -28 -18 -90
-31 -140 -13 -49 -31 -119 -40 -155 -9 -36 -25 -93 -35 -128 -11 -34 -19 -72
-19 -83 0 -11 -4 -28 -10 -38 -5 -10 -14 -56 -20 -103 -6 -48 -19 -121 -30
-164 -11 -42 -20 -89 -21 -103 -4 -239 -4 -246 -25 -292 -18 -38 -22 -66 -22
-150 0 -57 4 -123 9 -146 5 -27 5 -89 -2 -170 -6 -70 -11 -146 -11 -168 1 -22
-8 -74 -19 -115 -11 -41 -26 -104 -33 -140 -14 -66 -42 -157 -56 -175 -4 -5
-10 -23 -14 -40 -4 -16 -16 -48 -26 -70 -31 -68 -60 -178 -60 -224 0 -26 9
-59 22 -82 l21 -38 -22 -93 c-12 -51 -31 -114 -42 -140 -16 -39 -20 -76 -22
-210 -1 -90 -1 -211 1 -271 3 -94 1 -111 -17 -140 -24 -39 -23 -106 2 -247 10
-54 12 -100 8 -127 -5 -22 -3 -66 2 -97 8 -42 7 -66 -2 -94 -10 -29 -11 -52
-4 -88 15 -75 2 -625 -16 -692 -14 -49 -60 -96 -128 -128 -25 -12 -57 -33 -71
-47 -15 -14 -52 -41 -83 -59 -72 -43 -128 -82 -190 -135 -107 -92 -190 -111
-312 -70 -42 14 -93 29 -114 32 -21 4 -46 9 -55 12 -17 4 -18 -147 -18 -3071
l0 -3076 6834 0 6834 0 6 43 c4 23 9 71 12 107 3 35 11 68 17 72 9 6 9 10 1
16 -7 4 -14 30 -17 57 -8 81 -28 159 -44 177 -14 16 -20 52 -27 180 -2 32 -9
64 -16 73 -9 11 -10 22 -4 38 10 22 10 85 0 141 -5 33 18 76 43 77 11 0 9 3
-6 9 -20 8 -23 17 -23 59 0 27 -5 53 -10 56 -6 4 -8 11 -4 16 3 5 1 16 -5 22
-13 17 -3 57 15 57 10 0 12 8 8 29 -3 16 -1 31 4 35 11 7 4 46 -8 46 -11 0
-33 67 -26 79 4 5 1 21 -5 35 -9 20 -9 29 1 41 10 12 11 18 2 24 -7 4 -9 27
-6 66 8 84 6 104 -12 139 -12 23 -17 68 -20 166 -2 74 -9 163 -15 196 -7 36
-9 69 -4 80 5 11 9 24 10 29 0 6 4 16 9 23 5 8 1 21 -11 34 -16 18 -18 39 -19
167 0 91 -5 160 -13 184 -7 20 -11 43 -8 50 2 6 0 25 -4 40 -5 18 -4 36 3 47
9 14 9 22 -1 34 -11 13 -11 19 -1 31 7 8 9 23 4 37 -4 13 -9 39 -10 58 -6 92
-15 180 -23 230 -6 36 -5 57 1 61 16 10 12 78 -6 97 -17 20 -27 106 -31 284
-2 68 0 118 6 118 5 0 9 15 9 34 0 19 6 41 13 48 7 7 12 28 12 46 0 17 4 32 9
32 4 0 6 19 2 42 -14 98 -16 137 -8 142 10 6 -5 203 -19 237 -6 15 -8 61 -5
107 3 50 1 84 -5 88 -6 3 -9 26 -8 50 2 24 0 46 -4 50 -11 11 -8 94 4 138 6
23 7 41 1 45 -10 7 -10 116 1 127 11 11 8 92 -3 99 -8 5 -8 11 0 20 9 10 8 20
-4 37 -17 27 -24 87 -12 107 5 8 3 16 -5 22 -16 10 -14 126 3 146 7 9 7 18 -2
28 -7 8 -10 21 -7 30 4 8 2 17 -3 20 -6 4 -10 17 -10 31 0 14 -4 23 -9 20 -14
-9 -18 74 -4 86 18 14 15 134 -3 149 -10 8 -11 16 -3 31 11 20 9 48 -6 96 -6
16 -3 22 9 22 9 0 16 8 16 19 0 11 4 22 9 25 5 3 7 23 4 45 -3 23 -1 41 6 45
6 4 11 26 11 49 0 23 5 62 11 87 6 25 11 58 11 74 -1 18 5 30 16 33 15 3 17
21 20 119 2 87 -1 120 -12 136 -8 11 -12 26 -9 34 3 7 -4 26 -15 41 -15 22
-19 47 -21 118 -2 145 -8 217 -20 270 -7 28 -14 89 -16 137 -2 48 -10 98 -17
110 -8 15 -11 56 -9 118 1 55 -2 108 -9 125 -7 17 -12 57 -12 90 0 36 -6 69
-14 83 -10 14 -14 45 -13 87 2 56 -2 69 -20 89 l-23 24 21 21 c20 20 27 60 22
119 -1 12 3 22 9 22 5 0 10 -5 10 -12 0 -9 3 -9 11 -1 8 8 7 16 -2 31 -10 17
-10 23 0 36 11 13 11 16 -3 16 -9 0 -16 8 -16 18 0 10 -3 22 -7 26 -4 3 -8 41
-10 84 -1 42 -7 119 -12 171 -6 52 -8 98 -5 103 3 4 0 8 -5 8 -6 0 -11 7 -11
15 0 8 5 15 11 15 6 0 8 9 4 20 -4 13 -1 22 9 26 9 3 16 17 16 29 0 13 4 26
10 30 5 3 7 12 4 20 -4 8 -1 28 4 44 8 23 7 31 -4 35 -22 8 -17 53 9 71 l22
15 -24 7 c-20 5 -22 10 -17 43 4 26 2 41 -8 49 -10 8 -12 48 -10 175 1 91 5
170 9 176 8 13 -13 70 -26 70 -5 0 -9 8 -9 17 0 9 -10 37 -22 62 -15 32 -21
62 -20 107 0 43 -4 67 -14 75 -20 16 -17 29 6 29 13 0 20 7 20 20 0 12 7 20
16 20 11 0 14 5 9 18 -4 9 -8 29 -10 44 -1 15 -6 33 -11 40 -5 7 -9 47 -8 90
2 67 0 77 -17 81 -13 4 -19 14 -19 35 0 19 -6 32 -17 37 -17 6 -17 7 0 19 18
14 24 46 7 46 -5 0 -10 7 -10 15 0 8 -6 24 -12 36 -11 17 -10 22 4 33 11 8 13
17 8 27 -5 8 -10 41 -12 72 -2 31 -6 57 -10 57 -5 0 -8 10 -8 23 0 13 -5 28
-10 33 -6 6 -13 35 -17 64 -5 47 -4 53 10 47 19 -7 22 4 7 19 -6 6 -15 48 -20
94 -9 78 -8 84 10 97 18 13 19 16 5 43 -8 16 -15 46 -15 68 0 21 -7 47 -15 58
-8 10 -15 27 -15 36 0 10 -11 42 -25 72 -29 63 -31 86 -10 86 19 0 19 10 0 46
-16 31 -18 111 -3 120 5 3 6 15 3 25 -4 11 -2 26 5 34 7 9 8 15 0 20 -5 3 -10
16 -10 29 0 12 -5 27 -10 32 -8 8 -7 19 0 39 10 25 9 27 -10 22 -27 -7 -34 11
-22 55 7 25 6 37 -4 46 -8 7 -14 25 -14 40 0 16 -7 37 -15 48 -20 26 -20 88 0
80 11 -4 15 1 15 19 0 13 -5 27 -11 30 -16 10 -32 57 -30 84 2 13 -1 26 -6 30
-16 12 -33 50 -27 64 3 8 -1 17 -9 20 -11 4 -17 31 -22 96 -4 49 -13 98 -20
108 -7 10 -11 31 -8 48 3 20 -2 44 -16 68 -23 41 -26 69 -12 95 6 11 2 52 -9
112 -17 89 -17 96 -2 109 12 9 13 15 5 18 -7 2 -15 20 -19 38 -3 19 -11 33
-18 32 -14 -2 -19 240 -5 249 12 7 12 51 -1 56 -5 2 -10 19 -11 38 -2 19 -11
52 -21 72 -11 24 -18 59 -18 98 0 41 -4 60 -12 60 -10 0 -10 3 0 9 10 6 8 10
-10 14 -33 9 -56 51 -39 71 8 10 9 21 3 33 -5 10 -15 64 -22 121 -11 84 -11
107 0 127 11 20 11 27 0 40 -10 12 -10 21 -1 42 8 18 9 29 1 37 -15 15 -12 57
5 70 13 10 13 14 0 36 -37 64 -39 75 -59 297 -2 29 0 55 5 59 5 3 9 22 9 42 0
26 -3 33 -9 23 -11 -17 -19 7 -25 75 -1 23 -10 52 -20 65 -9 13 -16 27 -16 32
0 5 -14 28 -31 51 -25 36 -29 49 -24 79 6 30 4 37 -15 47 -19 10 -21 18 -17
47 4 25 1 39 -13 53 -33 33 -41 56 -25 70 21 17 19 42 -2 38 -16 -3 -18 7 -20
79 -1 46 3 85 8 89 21 13 -2 32 -46 38 -5 0 -11 18 -13 39 -2 25 -9 40 -20 44
-35 13 -63 51 -66 89 -1 21 -8 40 -14 42 -7 2 -12 9 -12 16 0 6 -18 49 -40 94
-31 63 -40 93 -40 134 0 44 -4 55 -26 73 -28 22 -25 55 6 55 28 0 32 29 11 74
-38 78 -42 96 -26 102 21 9 19 22 -9 48 -19 17 -26 34 -28 77 -3 46 -6 54 -23
57 -12 2 -29 19 -40 40 -28 52 -45 69 -82 76 -25 6 -33 14 -38 37 -4 17 -2 36
5 44 8 10 7 16 -9 27 -10 7 -24 32 -30 55 -8 27 -18 42 -32 46 -11 3 -19 11
-18 19 3 26 -1 36 -21 41 -16 4 -20 14 -20 45 0 23 -4 44 -10 47 -5 3 -10 17
-10 31 0 14 -11 46 -25 73 -13 27 -22 51 -19 53 2 3 -2 11 -11 18 -8 7 -15 21
-15 31 0 11 -6 19 -14 19 -15 0 -26 21 -26 51 0 10 -4 19 -9 19 -28 0 -103 96
-113 143 -1 10 -24 40 -50 68 -27 28 -48 58 -48 66 0 8 -9 26 -20 40 -11 14
-20 36 -20 48 0 12 -7 29 -16 36 -21 17 -94 129 -94 144 0 6 -13 37 -30 68
-16 32 -30 68 -30 81 0 12 -5 27 -12 34 -6 6 -13 47 -16 91 -3 60 -9 85 -23
100 -11 11 -19 25 -19 31 0 5 -9 27 -20 47 -11 21 -20 43 -20 49 0 6 -9 19
-20 29 -11 10 -20 30 -20 44 -1 14 -7 37 -15 51 -8 14 -14 37 -15 53 0 38 -33
94 -71 123 -18 13 -37 24 -42 24 -5 0 -40 28 -77 63 -36 35 -98 85 -136 110
-39 26 -92 70 -119 98 -27 28 -72 66 -100 84 -29 18 -63 48 -75 66 -34 49 -43
57 -135 119 -13 8 -38 27 -56 41 -35 26 -178 79 -215 79 -11 0 -25 5 -31 11
-6 6 -21 16 -34 23 -35 18 -59 57 -74 124 -15 63 -47 124 -81 153 -11 9 -91
65 -179 124 -111 75 -184 132 -240 189 -88 91 -167 141 -241 155 -52 10 -190
42 -286 66 -108 28 -146 15 -133 -44 4 -20 0 -45 -14 -76 -25 -57 -63 -75
-159 -75 -77 0 -92 -10 -130 -85 -53 -105 -135 -132 -229 -74 -39 25 -83 109
-83 162 0 21 10 72 21 112 12 41 19 81 16 89 -8 21 -43 20 -92 -3z m-132
-1637 c-3 -8 0 -14 7 -14 6 0 8 5 5 10 -4 6 8 10 29 10 24 0 36 5 36 13 0 10
14 14 46 15 39 0 50 -5 80 -34 36 -36 54 -37 54 -3 0 11 7 22 15 25 25 10 85
-5 85 -21 0 -10 10 -15 27 -15 31 0 73 -35 73 -62 0 -11 10 -20 28 -24 15 -3
34 -8 42 -11 8 -3 36 -5 61 -4 39 2 47 -1 52 -18 4 -15 16 -22 56 -27 28 -4
51 -10 51 -15 0 -10 99 -41 110 -34 4 3 15 -6 24 -20 15 -22 23 -25 69 -24 29
1 57 6 64 11 19 15 38 4 38 -23 0 -19 5 -23 24 -21 19 2 22 -2 18 -17 -3 -14
3 -25 20 -36 17 -11 22 -22 18 -36 -5 -16 -1 -19 28 -19 19 0 49 7 66 16 30
15 34 15 49 0 11 -10 12 -16 4 -16 -7 0 -12 -5 -12 -11 0 -6 8 -8 20 -4 10 3
36 1 57 -4 21 -6 41 -7 46 -2 11 11 122 -43 130 -63 4 -11 19 -16 47 -16 29 0
40 -4 40 -15 0 -8 -5 -15 -11 -15 -5 0 1 -10 14 -22 13 -13 26 -30 30 -39 3
-10 21 -22 41 -29 30 -10 37 -18 51 -63 29 -93 36 -105 66 -117 16 -7 29 -18
29 -24 0 -6 3 -20 6 -31 3 -13 -3 -30 -15 -44 -15 -17 -18 -28 -11 -41 11 -21
35 -31 55 -24 8 4 15 1 15 -6 0 -7 11 -28 25 -46 21 -28 25 -40 19 -70 -5 -28
-4 -35 5 -29 7 4 10 13 7 21 -3 8 1 14 8 14 7 0 19 7 26 15 7 8 17 12 22 9 6
-4 4 -11 -7 -16 -15 -9 -14 -13 11 -39 15 -15 30 -26 34 -24 4 3 16 -7 26 -20
10 -14 26 -25 35 -25 14 0 40 -36 106 -145 7 -11 15 -27 18 -35 15 -37 24 -44
66 -54 34 -9 45 -16 47 -33 2 -12 18 -31 35 -42 18 -11 42 -34 55 -50 12 -17
29 -31 37 -31 12 0 36 -19 126 -105 9 -8 21 -15 27 -15 7 0 12 -11 12 -24 0
-48 -7 -53 -73 -50 -34 2 -64 -1 -67 -7 -4 -5 -30 -12 -58 -16 -43 -5 -52 -3
-52 10 0 24 -21 32 -27 9 -6 -24 -63 -36 -99 -20 -28 13 -146 -4 -152 -22 -5
-15 -45 -12 -68 4 -17 13 -21 12 -37 -2 -13 -11 -20 -13 -25 -5 -10 16 -101
-2 -117 -24 -7 -10 -20 -14 -33 -11 -12 3 -43 -5 -72 -19 -29 -14 -60 -23 -71
-20 -24 7 -75 -38 -53 -47 23 -9 6 -26 -26 -26 -16 0 -42 -11 -58 -25 -17 -14
-37 -25 -46 -25 -10 0 -28 -12 -42 -27 -20 -22 -28 -25 -43 -16 -13 8 -23 7
-42 -3 -13 -7 -32 -13 -42 -14 -13 0 -17 -6 -15 -22 3 -20 -2 -23 -28 -23 -41
-1 -62 -19 -57 -48 6 -30 -25 -66 -38 -45 -5 7 -9 9 -9 3 0 -5 -9 -21 -19 -34
-18 -23 -20 -24 -36 -8 -20 21 -55 22 -55 2 0 -8 7 -15 15 -15 11 0 15 -13 17
-52 4 -106 5 -119 17 -131 6 -6 11 -19 11 -28 0 -10 11 -20 25 -23 20 -5 25
-12 23 -34 -6 -86 1 -111 42 -153 22 -23 40 -51 40 -63 0 -13 13 -32 30 -44
17 -13 30 -29 30 -37 0 -8 11 -17 25 -21 15 -4 25 -13 25 -24 0 -10 10 -25 23
-34 l22 -17 -25 7 c-23 6 -24 6 -10 -12 8 -10 21 -25 28 -32 6 -7 12 -19 12
-27 0 -7 12 -20 26 -30 20 -13 24 -22 19 -42 -3 -14 -2 -30 3 -36 5 -7 17 -36
27 -64 11 -29 25 -53 32 -53 7 0 13 -4 13 -10 0 -5 -5 -10 -12 -10 -9 0 -9 -3
0 -12 7 -7 12 -20 12 -30 0 -10 7 -21 15 -24 8 -4 15 -18 15 -31 0 -25 33 -64
64 -76 9 -4 16 -10 15 -14 -5 -32 4 -55 25 -63 14 -5 32 -21 42 -35 9 -14 23
-25 31 -25 8 0 17 -9 20 -20 3 -11 11 -20 17 -20 7 0 30 -16 52 -35 21 -19 42
-35 47 -35 4 0 7 -5 7 -11 0 -14 78 -89 94 -89 6 0 24 -14 39 -31 21 -25 27
-41 27 -79 0 -39 4 -50 24 -63 14 -10 26 -30 30 -51 4 -21 17 -42 33 -54 55
-40 4 -66 -112 -55 -46 4 -65 2 -65 -6 0 -6 -10 -11 -23 -11 -12 0 -30 -9 -40
-20 -9 -11 -26 -20 -37 -20 -28 0 -76 -26 -83 -45 -4 -8 -13 -15 -21 -15 -8 0
-21 -9 -29 -20 -11 -16 -26 -21 -71 -22 -31 -1 -56 -6 -56 -11 0 -18 -32 -47
-52 -47 -10 0 -30 -8 -45 -17 -14 -9 -40 -16 -59 -15 -22 2 -36 -3 -42 -14 -7
-12 -25 -18 -63 -20 -30 -1 -65 -6 -79 -11 -28 -11 -50 -7 -65 11 -16 20 -108
46 -121 35 -12 -10 -62 6 -75 24 -3 4 -29 16 -59 27 -53 19 -82 18 -61 -3 6
-6 11 -14 11 -18 0 -9 -52 -6 -68 5 -8 5 -21 1 -33 -10 -16 -14 -22 -15 -28
-5 -6 10 -12 8 -26 -6 -10 -10 -23 -18 -29 -19 -23 -1 -149 -67 -174 -91 -15
-14 -41 -32 -59 -39 -17 -8 -34 -22 -37 -31 -3 -10 -20 -27 -36 -38 -17 -11
-33 -30 -37 -43 -3 -13 -17 -28 -30 -33 -21 -8 -24 -14 -20 -37 3 -15 0 -35
-8 -46 -13 -17 -17 -17 -31 -5 -16 13 -17 11 -10 -16 6 -29 89 -117 143 -152
34 -23 283 -50 283 -31 0 6 11 7 24 4 18 -4 23 -2 22 11 -1 12 8 19 29 23 17
3 45 18 63 34 33 30 41 34 97 43 34 5 57 -10 117 -72 28 -30 38 -48 38 -72 0
-43 -21 -43 -53 -2 -17 22 -30 30 -42 26 -15 -6 -15 -8 -1 -23 9 -8 16 -22 16
-30 0 -19 -34 -18 -50 1 -7 8 -24 15 -37 15 -21 0 -24 -4 -19 -22 3 -13 6 -28
6 -35 0 -8 7 -10 18 -6 13 5 12 1 -6 -19 -20 -22 -21 -26 -7 -32 26 -9 73 -7
57 3 -11 6 -10 10 4 15 9 4 22 2 28 -4 5 -5 18 -10 28 -10 10 0 18 -7 18 -15
0 -9 6 -12 16 -8 9 3 19 0 24 -6 8 -14 90 -28 90 -16 0 4 -8 14 -17 21 -16 12
-15 13 10 14 15 0 27 -4 27 -9 0 -5 27 -7 61 -4 55 5 61 4 65 -15 5 -17 13
-20 50 -17 25 1 51 -3 61 -11 19 -14 83 -19 83 -6 0 4 -5 13 -12 20 -9 9 -9
12 3 12 12 0 12 2 0 9 -8 5 -14 26 -14 50 0 31 -5 44 -18 52 -21 11 -26 39 -7
39 19 0 102 -42 111 -57 4 -7 15 -13 22 -13 8 0 15 -9 15 -20 0 -11 7 -20 16
-20 8 0 12 -5 9 -11 -5 -7 11 -10 47 -9 66 1 177 -16 194 -31 10 -8 11 -16 4
-29 -6 -12 -6 -21 -1 -25 13 -7 24 12 15 26 -5 9 4 10 32 5 21 -4 42 -14 47
-21 4 -7 20 -16 36 -20 15 -3 38 -15 49 -25 12 -11 26 -20 32 -20 7 0 9 -8 4
-22 -6 -20 -5 -21 9 -10 13 11 19 11 36 0 11 -7 23 -18 25 -25 7 -17 -41 -17
-74 0 -14 8 -48 19 -75 26 -28 6 -58 14 -67 17 -11 3 -22 -4 -31 -22 l-14 -28
-12 23 c-7 12 -17 19 -22 15 -11 -7 -30 -10 -103 -22 -41 -6 -50 -11 -51 -29
-2 -26 -31 -73 -46 -73 -6 0 -9 -8 -7 -18 4 -25 -19 -52 -44 -52 -11 0 -29 -6
-41 -12 -12 -7 -47 -13 -77 -13 -164 -2 -200 -5 -200 -18 0 -29 -64 -60 -117
-57 -71 4 -151 -10 -185 -32 -14 -9 -35 -18 -48 -20 -16 -2 -26 -11 -30 -28
-6 -24 -10 -25 -89 -28 -74 -3 -89 -7 -127 -33 -23 -16 -49 -29 -58 -29 -8 0
-18 -4 -21 -10 -3 -5 -18 -7 -34 -4 -26 5 -51 -4 -141 -55 -16 -8 -50 -26 -90
-48 -14 -7 -21 -13 -16 -13 13 0 -25 -40 -38 -40 -6 -1 -29 -9 -51 -20 -22
-11 -46 -19 -53 -20 -7 0 -15 -7 -18 -15 -4 -8 -16 -15 -29 -15 -31 0 -85 -29
-85 -46 0 -7 -11 -21 -25 -30 -14 -9 -25 -25 -25 -35 0 -13 -7 -19 -22 -19
-11 0 -37 -12 -57 -27 -20 -15 -40 -28 -46 -29 -5 0 -13 -2 -17 -2 -4 -1 4
-14 18 -29 14 -15 23 -35 21 -45 -6 -22 9 -34 53 -41 85 -14 106 -19 127 -29
16 -8 30 -7 52 2 17 7 37 10 45 7 8 -3 26 5 40 18 15 14 37 23 54 23 38 -1 52
8 52 34 0 17 4 19 25 14 18 -5 27 -2 31 9 4 8 17 15 29 15 13 0 26 4 29 9 3 4
27 14 53 21 27 7 55 19 65 27 9 8 25 14 35 12 17 -2 30 1 82 22 13 5 31 7 41
4 10 -3 36 1 57 10 28 12 39 13 42 4 2 -7 11 -3 22 12 16 22 20 23 40 10 19
-11 23 -11 30 1 5 8 23 15 41 16 18 0 34 5 36 11 2 6 30 13 63 17 33 4 62 11
65 15 3 5 16 9 30 9 13 0 24 5 24 10 0 7 7 7 21 -1 15 -8 24 -8 32 0 16 16 53
13 67 -4 7 -9 20 -13 29 -10 26 10 138 18 256 17 195 -1 414 -10 426 -18 7 -4
28 -8 47 -10 19 -2 45 -10 58 -19 13 -8 30 -15 38 -15 8 0 27 -7 43 -15 15 -8
61 -26 100 -41 40 -15 80 -35 89 -46 10 -10 22 -18 29 -18 38 0 122 -71 152
-128 14 -27 7 -52 -14 -52 -9 0 -21 -7 -28 -17 -11 -15 -14 -14 -34 6 -15 15
-29 20 -42 16 -34 -11 -66 3 -73 30 -6 22 -9 24 -27 14 -12 -6 -18 -17 -15
-25 5 -12 2 -12 -23 0 -30 16 -50 9 -113 -36 -15 -11 -48 -19 -93 -21 -63 -4
-70 -6 -77 -29 -9 -26 -45 -48 -77 -48 -10 0 -21 -3 -24 -6 -10 -11 -67 -13
-73 -3 -3 5 -20 6 -38 4 -19 -4 -44 1 -62 10 -39 20 -61 19 -74 -5 -6 -11 -18
-20 -28 -20 -18 0 -96 -58 -117 -86 -11 -16 -12 -16 -18 0 -9 22 -18 20 -62
-9 -23 -16 -41 -22 -49 -17 -6 5 -30 14 -54 22 -37 12 -44 11 -55 -3 -17 -22
-112 -38 -149 -25 -40 14 -160 2 -171 -18 -4 -7 -20 -14 -34 -14 -26 0 -26 1
-7 14 29 22 13 28 -49 18 -33 -5 -60 -5 -65 0 -15 15 -125 5 -130 -11 -4 -11
3 -12 32 -7 28 5 36 4 36 -8 0 -10 -18 -18 -55 -26 -63 -13 -77 -26 -41 -39
49 -19 41 -81 -11 -81 -13 0 -37 -7 -53 -15 -17 -9 -40 -13 -53 -9 -39 9 -58
-19 -55 -80 3 -45 6 -51 26 -54 18 -3 21 -6 12 -17 -8 -10 -8 -15 1 -20 6 -4
15 -2 19 5 6 9 10 7 15 -9 9 -28 3 -35 -43 -50 -29 -10 -44 -10 -60 -2 -17 9
-29 6 -69 -17 l-48 -28 -100 13 c-150 20 -150 20 -151 3 -3 -41 -15 -50 -68
-50 -70 0 -103 31 -48 45 25 7 26 8 6 15 -29 11 -73 1 -85 -21 -7 -15 -21 -19
-59 -19 -28 0 -50 5 -50 10 0 6 -7 10 -15 10 -8 0 -15 -4 -15 -10 0 -16 -38
-12 -60 7 -10 9 -43 24 -72 33 -48 14 -53 19 -56 47 -2 23 -9 33 -28 37 -22 6
-24 12 -24 59 0 41 -4 55 -19 64 -15 10 -21 10 -24 0 -3 -7 -6 -2 -6 10 -1 28
-14 35 -35 20 -11 -8 -20 -35 -25 -77 -5 -36 -9 -51 -10 -34 0 17 -4 52 -7 78
-6 38 -4 46 10 46 10 0 16 8 16 23 0 28 -17 47 -42 47 -22 0 -24 -16 -3 -24 8
-3 15 -12 15 -20 0 -20 -50 -72 -77 -81 -33 -9 -32 -62 1 -74 13 -5 26 -16 29
-24 4 -11 16 -14 41 -10 29 4 37 0 51 -21 9 -14 14 -30 10 -36 -10 -16 -94 -1
-116 21 -11 11 -26 19 -34 19 -8 0 -15 7 -15 15 0 19 -35 55 -54 55 -8 0 -28
12 -45 26 -26 22 -31 33 -31 69 0 48 -17 95 -34 95 -6 0 -26 14 -44 31 -32 29
-33 31 -15 44 24 18 8 33 -18 17 -15 -10 -20 -10 -24 0 -2 7 -16 52 -31 100
-18 61 -34 92 -50 102 -12 9 -32 36 -45 61 -12 25 -26 45 -31 45 -4 0 -8 6 -8
14 0 20 -21 31 -30 16 -6 -9 -12 -9 -29 -1 -22 12 -28 45 -11 56 16 10 12 19
-20 60 -16 21 -30 46 -30 56 0 11 -4 19 -10 19 -5 0 -10 5 -10 12 0 6 -9 22
-21 34 -22 23 -19 44 7 44 8 0 14 5 14 10 0 6 -6 10 -12 9 -7 -1 -23 -1 -36 0
-19 1 -21 4 -12 21 8 15 5 30 -14 67 -14 27 -30 79 -36 117 -6 38 -16 78 -22
89 -7 13 -8 43 -3 81 4 34 8 81 10 106 2 25 8 67 14 93 6 27 10 51 9 55 -1 4
6 22 16 41 10 18 16 44 13 57 -3 16 0 24 9 24 8 0 14 5 14 10 0 6 -5 10 -11
10 -6 0 -3 7 6 16 11 12 13 20 6 27 -17 17 -13 24 19 31 27 5 30 10 30 41 0
22 -4 34 -10 30 -16 -10 -11 48 5 70 10 12 13 30 9 52 -4 21 -2 33 5 33 12 0
13 50 3 88 -4 13 -10 23 -14 23 -14 -1 -12 3 16 48 20 31 31 66 37 114 5 39
16 81 24 93 8 13 15 34 15 47 0 12 5 28 11 34 6 6 10 30 7 52 -2 23 -1 41 3
41 15 0 18 34 4 50 -8 9 -15 32 -15 51 0 39 8 224 12 284 1 22 -1 54 -5 71 -7
26 -5 32 11 36 20 5 39 68 27 88 -7 11 42 38 90 48 20 4 35 11 34 16 -1 15 24
26 60 26 27 0 32 3 27 16 -4 10 1 25 10 35 16 18 16 19 -8 19 -16 0 -28 7 -31
18 -2 9 -8 26 -13 36 -5 13 -4 17 4 12 6 -4 20 -1 32 6 15 10 24 10 39 1 10
-6 34 -15 54 -18 30 -6 35 -4 34 12 -2 16 7 18 68 20 98 3 132 8 149 22 16 13
56 6 56 -10 0 -14 23 -11 59 7 18 9 41 14 52 11 11 -3 25 0 32 6 13 13 66 16
83 5 7 -5 15 -1 18 8 4 11 13 14 30 10 19 -5 32 4 72 49 28 32 58 55 69 55 39
0 65 12 63 29 -2 11 8 19 30 26 31 9 45 35 20 35 -7 1 -1 8 15 16 29 16 33 33
17 65 -6 11 -12 39 -13 62 -2 23 -7 48 -11 55 -13 21 4 29 19 8 16 -21 37 -13
33 12 -2 12 5 18 27 20 17 2 34 7 39 12 5 5 0 7 -12 4 -25 -7 -62 12 -62 31 0
8 9 24 20 35 11 11 22 31 26 45 3 14 10 23 14 20 5 -3 10 -1 12 4 1 5 32 18
68 29 62 19 65 21 71 55 4 24 2 34 -6 31 -6 -3 -23 4 -36 16 -23 19 -23 21 -6
34 10 7 17 27 17 44 0 27 6 34 36 47 21 8 44 14 53 13 11 -2 17 6 19 27 4 36
26 63 55 67 14 2 24 14 30 38 5 19 13 41 19 47 7 9 6 15 -6 19 -22 8 -23 116
-1 134 20 17 19 33 -5 48 -13 8 -20 23 -20 45 0 17 -4 37 -8 43 -11 17 -49 34
-64 29 -8 -3 -24 18 -45 60 -25 53 -30 72 -23 95 11 40 1 110 -18 118 -8 3
-31 23 -50 44 -20 22 -52 48 -71 59 -20 10 -43 23 -51 27 -81 45 -100 46 -73
5 12 -18 13 -27 4 -36 -6 -6 -11 -20 -11 -31 0 -20 -38 -46 -67 -46 -19 0
-113 50 -113 61 0 4 -12 15 -27 23 -20 11 -23 15 -10 16 9 0 17 7 17 15 0 20
-66 21 -73 1 -5 -13 -10 -13 -37 0 -32 16 -98 12 -130 -9 -12 -7 -33 -4 -76
12 -33 11 -65 21 -71 21 -20 0 -24 -32 -6 -52 23 -26 2 -49 -24 -27 -17 15
-68 39 -80 39 -3 0 2 -10 13 -21 l19 -21 -35 7 c-19 4 -42 12 -52 18 -12 8
-23 8 -40 0 -44 -21 -59 -23 -64 -8 -8 20 -34 19 -34 0 0 -11 -12 -15 -44 -15
-43 0 -170 21 -211 35 -15 5 -16 4 -6 -3 18 -13 6 -46 -14 -38 -54 22 -52 21
-32 2 33 -34 22 -46 -43 -46 -33 0 -63 -1 -67 -2 -5 -2 -9 9 -11 25 -2 15 -9
27 -18 27 -18 0 -39 44 -30 65 3 10 12 15 21 11 18 -7 32 14 16 24 -7 4 -19
20 -27 35 -24 46 -8 89 61 168 8 9 15 26 15 37 0 25 23 72 44 89 21 17 2 66
-33 87 -22 13 -27 22 -24 43 2 14 4 43 4 64 -1 25 4 37 13 37 18 0 28 67 17
123 -9 51 -7 57 21 57 10 0 18 7 18 15 0 8 -7 15 -15 15 -11 0 -16 10 -15 38
0 20 0 50 0 66 1 37 8 49 27 42 12 -5 14 2 13 36 -5 80 -1 92 31 110 24 14 34
15 49 6 15 -10 22 -10 32 0 6 6 20 12 30 12 10 0 25 11 33 24 9 13 27 27 41
30 14 4 43 25 65 47 29 30 45 39 59 34 14 -5 20 -2 20 9 0 9 -5 16 -11 16 -7
0 -9 9 -5 24 4 16 1 26 -8 29 -21 8 -26 88 -6 95 8 3 30 17 48 30 24 19 35 22
45 13 16 -13 27 -5 27 21 0 13 7 18 25 18 14 0 25 -4 25 -10 0 -16 17 -12 56
15 20 14 45 25 56 25 10 0 21 7 24 15 4 9 19 15 35 15 22 0 32 6 39 25 10 27
20 31 37 14 8 -8 16 -6 31 9 11 11 40 22 70 26 43 5 50 9 45 24 -5 14 -3 15 8
5 15 -15 49 -17 49 -4 0 10 194 7 226 -4 15 -5 23 -2 28 10 5 14 9 15 21 5 7
-6 11 -18 8 -26z m105 -1716 c7 -7 12 -23 12 -35 0 -21 -3 -22 -20 -13 -12 6
-20 21 -20 35 0 27 9 32 28 13z m-1261 -108 c14 -11 35 -20 47 -20 19 -1 19
-2 5 -13 -9 -7 -14 -18 -12 -24 4 -12 -53 -20 -97 -14 -49 7 -74 3 -86 -14
-10 -13 -11 -22 -3 -31 17 -21 1 -36 -23 -23 -15 8 -22 8 -28 -1 -5 -8 -15
-10 -26 -6 -17 7 -17 8 -3 16 11 6 15 18 11 35 -3 20 0 25 17 25 24 0 29 28 6
36 -12 5 -13 10 -4 20 8 10 35 14 85 14 43 0 74 4 74 10 0 15 9 12 37 -10z
m938 -110 c3 -5 1 -10 -4 -10 -6 0 -11 5 -11 10 0 6 2 10 4 10 3 0 8 -4 11
-10z m-1015 -166 c0 -8 -5 -12 -10 -9 -6 4 -8 11 -5 16 9 14 15 11 15 -7z m43
-31 c0 -4 9 -17 19 -27 15 -16 20 -17 34 -5 14 11 18 11 29 -4 7 -10 19 -16
26 -15 7 2 17 -6 23 -17 27 -49 45 -67 68 -65 37 3 41 1 28 -15 -10 -12 -7
-14 20 -10 17 2 38 9 47 16 13 11 17 10 28 -5 8 -10 32 -20 57 -23 24 -3 46
-10 49 -16 9 -13 106 -48 149 -54 19 -3 47 -16 61 -30 19 -17 42 -26 83 -30
41 -4 60 -11 67 -24 5 -11 16 -19 24 -19 8 0 15 -8 15 -18 0 -10 9 -35 20 -56
21 -42 18 -58 -8 -54 -10 2 -18 -5 -20 -17 -2 -11 -8 -24 -12 -28 -13 -14 -47
2 -53 24 -10 38 -27 10 -21 -34 5 -32 2 -46 -10 -56 -14 -12 -19 -11 -35 3
-13 12 -21 14 -26 6 -4 -6 -18 -15 -31 -20 -16 -7 -24 -17 -24 -34 0 -33 -16
-41 -46 -25 -21 11 -28 10 -54 -9 -16 -12 -39 -22 -52 -22 -12 0 -39 -12 -60
-26 -31 -22 -48 -26 -99 -25 -34 0 -70 3 -79 6 -9 3 -22 0 -28 -8 -12 -14
-167 -16 -209 -3 -36 11 -39 44 -8 76 26 27 26 30 11 45 -9 9 -16 28 -16 41 0
14 -4 33 -10 43 -5 11 -6 30 -1 49 7 21 5 38 -5 58 -13 24 -13 29 0 36 10 6
13 19 9 46 -4 27 -1 42 10 51 9 7 13 19 10 27 -3 8 1 22 8 31 11 13 12 17 1
21 -19 6 -63 79 -56 95 2 7 -4 22 -16 32 -21 19 -27 45 -10 45 15 0 12 16 -6
34 -13 14 -14 16 0 16 8 0 18 -4 21 -10 9 -15 41 -12 55 5 13 15 21 15 23 -2z
m3554 -714 c17 -17 4 -39 -21 -39 -12 0 -27 -5 -34 -12 -6 -6 -25 -11 -42 -10
-23 0 -30 -3 -28 -15 2 -9 -3 -18 -9 -20 -8 -3 -13 4 -13 16 0 12 4 21 9 21 5
0 12 9 16 20 4 13 23 25 53 34 59 18 56 18 69 5z m33 -64 c0 -10 -40 -24 -54
-19 -28 11 -17 24 19 24 19 0 35 -2 35 -5z m-232 -97 c11 -24 19 -28 53 -28
32 0 41 -5 51 -24 16 -37 5 -58 -25 -47 -17 7 -30 6 -43 -3 -33 -22 -65 -25
-105 -9 -22 8 -50 12 -63 9 -29 -7 -56 2 -56 19 0 6 -10 16 -21 21 -21 10 -21
10 6 42 30 36 41 39 66 16 20 -18 52 -7 63 21 10 27 59 15 74 -17z m62 -3 c0
-8 -2 -15 -4 -15 -2 0 -6 7 -10 15 -3 8 -1 15 4 15 6 0 10 -7 10 -15z m-3170
-419 c0 -2 -7 -6 -15 -10 -8 -3 -15 -1 -15 4 0 6 7 10 15 10 8 0 15 -2 15 -4z
m3530 -6 c0 -5 -4 -10 -10 -10 -5 0 -10 5 -10 10 0 6 5 10 10 10 6 0 10 -4 10
-10z m-5166 -42 c9 -12 14 -24 12 -26 -9 -8 -46 19 -46 33 0 22 17 18 34 -7z
m4891 -297 c3 -6 19 -16 35 -24 25 -13 29 -13 34 0 5 12 9 13 21 3 17 -14 35
-5 35 16 0 9 6 14 13 11 7 -2 11 -16 9 -35 -3 -28 0 -32 35 -40 74 -19 83 -20
83 -11 0 15 40 10 46 -6 7 -18 69 -21 80 -4 9 15 119 3 148 -16 11 -8 41 -17
66 -20 79 -12 110 -25 110 -46 0 -11 13 -31 29 -45 20 -17 27 -30 24 -45 -4
-15 0 -22 16 -26 16 -4 21 -13 21 -40 0 -18 -6 -44 -14 -56 -7 -12 -14 -37
-14 -56 -1 -19 -12 -49 -26 -70 -35 -50 -38 -131 -4 -131 20 0 20 -1 4 -19
-10 -11 -20 -34 -23 -53 -3 -18 -8 -35 -13 -38 -4 -3 -10 -15 -14 -27 -4 -12
-17 -23 -29 -25 -22 -3 -39 -48 -18 -48 14 0 14 -29 0 -68 l-11 -32 -29 21
c-22 15 -29 28 -29 54 0 33 -17 49 -43 39 -7 -2 -19 -24 -27 -47 -14 -38 -18
-42 -45 -40 -29 3 -29 2 -7 -9 24 -12 30 -28 10 -28 -9 0 -9 -3 0 -12 14 -14
16 -54 4 -62 -11 -6 -75 10 -119 30 -20 9 -33 22 -33 33 0 23 -26 75 -45 91
-8 7 -15 25 -15 41 0 16 -4 29 -9 29 -4 0 -20 11 -35 25 -21 20 -25 29 -17 39
15 17 -1 61 -24 70 -13 5 -15 13 -11 34 7 26 6 26 -13 -5 -22 -36 -42 -41 -61
-18 -12 15 -5 39 9 30 5 -2 16 4 25 14 16 18 16 20 -14 41 l-31 22 23 12 c33
17 33 70 -1 74 -20 3 -22 8 -18 35 8 57 -32 95 -48 45 -5 -17 -8 -19 -12 -8
-3 8 -14 23 -24 33 -19 20 -31 67 -18 67 5 0 9 19 9 43 -1 40 -3 43 -51 66
-29 14 -48 30 -45 37 7 19 -17 42 -49 47 l-30 4 33 2 c22 1 32 6 32 17 0 12
-6 15 -25 10 -22 -6 -25 -3 -25 19 0 21 5 25 28 25 16 0 37 9 47 20 19 21 79
28 90 11z m782 -197 c-3 -3 -12 -4 -19 -1 -8 3 -5 6 6 6 11 1 17 -2 13 -5z
m-4321 -31 c-10 -10 -19 5 -10 18 6 11 8 11 12 0 2 -7 1 -15 -2 -18z m3214
-93 c0 -5 -7 -10 -15 -10 -8 0 -15 5 -15 10 0 6 7 10 15 10 8 0 15 -4 15 -10z
m1020 -655 c0 -8 -4 -15 -10 -15 -5 0 -10 7 -10 15 0 8 5 15 10 15 6 0 10 -7
10 -15z m-170 -139 c0 -8 -7 -17 -16 -20 -23 -9 -24 -8 -24 14 0 13 7 20 20
20 11 0 20 -6 20 -14z m-5460 -90 c0 -3 -4 -8 -10 -11 -5 -3 -10 -1 -10 4 0 6
5 11 10 11 6 0 10 -2 10 -4z m3770 -41 c0 -8 -7 -15 -15 -15 -8 0 -15 7 -15
15 0 8 7 15 15 15 8 0 15 -7 15 -15z m-2473 -27 c-3 -8 -6 -5 -6 6 -1 11 2 17
5 13 3 -3 4 -12 1 -19z m3553 -268 c6 -11 17 -20 25 -20 8 0 15 -6 15 -13 0
-7 10 -17 22 -22 12 -6 23 -16 24 -23 1 -7 0 -8 -3 -2 -2 5 -13 10 -23 10 -11
0 -24 9 -30 21 -7 11 -18 18 -25 15 -14 -5 -45 23 -45 42 0 19 28 14 40 -8z
m225 -220 c3 -5 1 -10 -4 -10 -6 0 -11 5 -11 10 0 6 2 10 4 10 3 0 8 -4 11
-10z m-6435 -40 c0 -5 -2 -10 -4 -10 -3 0 -8 5 -11 10 -3 6 -1 10 4 10 6 0 11
-4 11 -10z m6602 -739 c8 -10 22 -21 29 -23 8 -3 11 -8 8 -12 -12 -13 -69 16
-69 35 0 24 11 24 32 0z m-7682 -21 c0 -5 -5 -10 -11 -10 -5 0 -7 5 -4 10 3 6
8 10 11 10 2 0 4 -4 4 -10z m5215 -671 c7 -10 -21 -49 -35 -49 -9 0 -19 47
-12 55 9 9 41 5 47 -6z m-618 -5 c-3 -3 -12 -4 -19 -1 -8 3 -5 6 6 6 11 1 17
-2 13 -5z m1588 -197 c17 0 60 4 98 7 57 6 67 5 67 -8 0 -13 9 -15 48 -12 26
2 60 9 75 15 17 7 35 8 45 2 9 -4 37 -11 62 -15 25 -4 56 -9 70 -11 14 -2 54
-7 90 -11 46 -5 69 -12 78 -26 8 -10 25 -18 43 -18 28 0 33 -7 29 -43 -1 -14
4 -16 22 -12 18 5 32 -4 66 -38 34 -35 40 -46 28 -50 -9 -4 -16 -15 -16 -26 0
-19 -48 -54 -76 -55 -22 -2 -43 -33 -37 -56 6 -22 5 -23 -48 -18 -48 5 -56 3
-72 -17 -18 -25 -8 -42 18 -31 8 3 17 1 19 -3 3 -5 -20 -11 -52 -14 -31 -3
-61 -12 -67 -19 -13 -17 -81 -48 -104 -48 -10 0 -24 -7 -31 -15 -10 -12 -31
-14 -106 -11 l-93 5 6 -33 c4 -29 1 -36 -27 -56 -32 -23 -32 -24 -11 -31 11
-5 21 -16 21 -25 0 -12 -5 -14 -17 -9 -10 5 -28 9 -40 10 -13 1 -26 5 -30 8
-3 4 -15 7 -25 7 -13 0 -18 -8 -18 -29 0 -27 19 -53 36 -50 26 4 34 -4 34 -33
0 -53 -13 -63 -77 -64 -49 -2 -60 -6 -78 -28 -16 -20 -24 -23 -33 -14 -7 7
-12 17 -12 23 0 13 -55 65 -69 65 -16 0 -25 -22 -11 -30 16 -10 22 -57 9 -65
-5 -4 -9 -16 -9 -27 0 -48 -65 -80 -72 -35 -5 37 -47 35 -80 -4 -32 -38 -43
-32 -43 19 0 33 -3 37 -25 37 -17 0 -26 -7 -31 -25 -7 -25 -7 -25 -19 8 -13
36 -35 42 -45 12 -4 -14 -15 -20 -35 -20 -33 0 -64 26 -56 46 7 19 -92 18
-118 -1 -13 -10 -24 -11 -37 -5 -10 6 -26 10 -37 10 -11 0 -31 15 -45 34 -15
18 -38 37 -52 40 -14 4 -25 13 -25 21 0 8 -9 15 -20 15 -11 0 -20 -7 -20 -15
0 -18 -41 -29 -77 -20 -15 3 -43 24 -64 45 -37 38 -37 39 -17 56 19 18 19 19
-20 54 -43 38 -60 81 -39 98 7 6 31 17 52 24 48 16 58 44 21 54 -32 8 -32 9
-1 42 l26 27 32 -36 c27 -31 36 -35 55 -28 19 7 22 16 24 66 l2 58 3 -55 c3
-38 7 -50 14 -40 8 13 10 13 19 0 8 -13 10 -12 10 3 0 11 8 17 24 17 29 0 42
15 20 24 -29 11 -5 23 53 25 32 1 61 5 65 9 4 4 8 25 10 47 2 33 7 41 26 43
12 2 22 -1 22 -7 0 -5 23 -9 51 -9 41 1 53 5 57 20 3 14 14 18 52 18 l47 0 1
41 c2 47 9 62 25 56 21 -7 87 34 87 54 0 24 11 24 59 -1 42 -21 51 -18 51 16
0 23 26 32 109 40 18 2 47 12 65 24 17 11 38 17 46 13 8 -4 29 -7 45 -6z
m-4100 -27 c3 -5 2 -10 -4 -10 -5 0 -13 5 -16 10 -3 6 -2 10 4 10 5 0 13 -4
16 -10z m2965 -450 c0 -5 -4 -10 -10 -10 -5 0 -10 5 -10 10 0 6 5 10 10 10 6
0 10 -4 10 -10z m5233 -3429 c10 -21 15 -46 11 -55 -4 -12 -2 -15 9 -10 18 7
29 -9 21 -30 -4 -12 -13 -15 -28 -10 -28 9 -37 24 -31 53 4 14 0 30 -11 42
-16 18 -14 49 4 49 4 0 16 -17 25 -39z m-12413 -881 c0 -5 -7 -10 -15 -10 -8
0 -15 5 -15 10 0 6 7 10 15 10 8 0 15 -4 15 -10z m75 -41 c-4 -5 -13 -9 -22
-9 -13 0 -13 3 -3 15 13 15 35 11 25 -6z m73 -51 c-3 -7 -15 -14 -29 -16 -23
-2 -23 -2 -5 13 24 18 39 20 34 3z m84 -55 c-6 -2 -10 -9 -7 -13 3 -5 -4 -14
-15 -20 -18 -9 -20 -8 -20 15 0 21 5 25 28 24 15 0 21 -3 14 -6z m102 -61 c5
-8 -55 -42 -74 -42 -6 0 -10 10 -10 21 0 16 5 20 19 16 10 -2 25 -1 32 4 18
11 26 11 33 1z m-342 -63 c15 -10 0 -29 -23 -29 -20 0 -26 15 -9 25 6 3 11 18
11 33 l2 27 4 -25 c3 -14 10 -28 15 -31z m158 26 c0 -8 -4 -15 -10 -15 -5 0
-10 7 -10 15 0 8 5 15 10 15 6 0 10 -7 10 -15z m285 -53 c-8 -8 -25 10 -19 20
4 6 9 5 15 -3 4 -7 6 -15 4 -17z m-87 -13 c-2 -6 -8 -10 -13 -10 -5 0 -11 4
-13 10 -2 6 4 11 13 11 9 0 15 -5 13 -11z m-128 -39 c0 -11 -4 -20 -9 -20 -5
0 -7 9 -4 20 3 11 7 20 9 20 2 0 4 -9 4 -20z m-150 -6 c0 -17 -48 -30 -62 -16
-16 16 -3 27 31 28 20 1 31 -4 31 -12z m210 -54 c0 -32 -14 -40 -24 -14 -10
27 -7 44 9 44 10 0 15 -10 15 -30z m135 10 c0 -9 -8 -14 -20 -12 -35 5 -46 12
-40 23 10 15 60 7 60 -11z m-278 -27 c6 -16 -48 -37 -65 -26 -20 12 -16 27 10
35 31 9 51 5 55 -9z m196 -60 c-12 -31 -35 -8 -26 25 5 21 6 21 18 5 7 -9 11
-23 8 -30z m-99 22 c3 -9 -3 -19 -14 -25 -11 -6 -20 -17 -20 -24 0 -15 -21
-26 -51 -26 -22 0 -24 17 -4 44 10 13 22 17 40 14 19 -4 25 -1 25 13 0 23 16
25 24 4z m236 -4 c15 -29 13 -31 -29 -31 -26 0 -41 5 -45 16 -9 22 -8 23 13
17 10 -3 22 0 25 6 11 17 24 13 36 -8z m100 10 c0 -6 -5 -13 -10 -16 -15 -9
-43 3 -35 15 8 13 45 13 45 1z m-177 -75 c23 -18 22 -33 -4 -46 -25 -14 -24
-14 -32 28 -7 35 5 41 36 18z m114 -18 c29 2 39 -16 17 -32 -14 -11 -22 -10
-46 3 -31 18 -40 48 -10 36 9 -4 27 -7 39 -7z m-193 -20 c13 -22 6 -29 -22
-21 -26 6 -32 46 -6 41 9 -2 22 -11 28 -20z m-64 1 c0 -7 8 -18 17 -25 23 -16
14 -24 -36 -31 -33 -5 -41 -3 -41 11 0 9 6 16 14 16 7 0 16 9 19 20 5 21 27
28 27 9z m382 -11 c-9 -9 -15 -9 -24 0 -9 9 -7 12 12 12 19 0 21 -3 12 -12z
m-150 -48 c21 -12 51 -20 81 -20 50 0 55 -3 33 -26 -19 -18 -25 -18 -81 6
l-46 20 -11 -31 c-14 -40 -44 -36 -40 6 3 28 18 65 27 65 3 0 19 -9 37 -20z
m-137 -10 c30 -11 29 -35 -1 -35 -11 0 -20 -8 -22 -20 -7 -33 -22 -45 -51 -39
-29 7 -51 22 -51 34 0 5 9 6 21 3 21 -6 69 34 69 57 0 12 2 12 35 0z m305 -24
c0 -11 -19 -15 -25 -6 -3 5 1 10 9 10 9 0 16 -2 16 -4z m-460 -26 c13 -8 13
-10 -2 -10 -9 0 -20 5 -23 10 -8 13 5 13 25 0z m401 -52 c8 -15 14 -16 30 -8
23 13 40 5 32 -15 -7 -20 -25 -19 -65 3 -44 24 -65 18 -83 -24 -16 -39 -40
-47 -31 -10 3 14 1 28 -4 31 -6 4 -1 14 12 26 30 24 95 23 109 -3z m-181 -18
c0 -5 -5 -10 -11 -10 -6 0 -8 -13 -5 -35 6 -38 2 -43 -20 -21 -17 18 -18 63
-1 69 21 9 37 7 37 -3z m-76 -42 c13 -22 6 -29 -22 -21 -26 6 -32 46 -6 41 9
-2 22 -11 28 -20z m252 -25 c1 -12 -7 -29 -16 -38 -16 -14 -19 -13 -34 10 -14
21 -15 29 -5 41 18 22 54 14 55 -13z m7486 15 c-16 -16 -15 -28 3 -28 8 0 15
-5 15 -11 0 -5 -5 -7 -11 -3 -6 3 -15 0 -20 -7 -6 -10 -9 -5 -9 17 0 32 6 44
24 44 6 0 5 -5 -2 -12z m-7417 -28 c-4 -6 -10 -8 -15 -5 -4 3 -11 -1 -13 -7
-3 -8 -6 -6 -6 5 -1 11 6 17 20 17 11 0 17 -5 14 -10z m41 -27 c-3 -3 -13 -3
-22 1 -13 5 -14 9 -3 22 11 14 13 14 22 -1 5 -9 6 -19 3 -22z m7336 -5 c-4
-17 -2 -20 12 -15 12 5 16 3 14 -5 -3 -7 -12 -14 -21 -16 -13 -3 -17 4 -17 27
0 17 4 31 9 31 5 0 7 -10 3 -22z m-7574 5 c-34 -69 -36 -71 -82 -53 -36 13
-33 25 12 43 40 16 76 21 70 10z m254 -66 c26 -19 36 -37 22 -37 -4 0 -24 5
-45 12 -33 9 -42 9 -57 -5 -17 -16 -20 -16 -40 6 -29 31 -28 37 7 37 17 0 33
5 36 10 8 13 41 3 77 -23z m7375 -7 c0 -16 -4 -30 -8 -30 -12 0 -17 49 -5 54
6 2 11 5 12 5 0 1 1 -12 1 -29z m4318 3 c-3 -8 -5 -23 -5 -34 0 -10 -4 -19
-10 -19 -5 0 -10 15 -10 33 0 24 5 34 15 34 10 0 14 -6 10 -14z m-4362 -13
c22 -26 23 -90 2 -90 -17 0 -20 -25 -5 -35 6 -4 4 -15 -6 -30 -9 -14 -14 -32
-10 -40 3 -9 -1 -18 -9 -21 -8 -4 -15 -17 -15 -29 0 -13 -4 -27 -10 -30 -5 -3
-10 -17 -10 -30 0 -13 -4 -27 -10 -30 -5 -3 -10 -17 -10 -31 0 -13 -8 -43 -19
-67 -34 -77 -44 -108 -43 -137 0 -16 -6 -31 -14 -34 -8 -3 -14 -11 -13 -18 3
-27 -1 -47 -14 -60 -7 -7 -19 -28 -26 -45 -7 -18 -17 -33 -22 -33 -5 0 -9 -8
-9 -18 0 -10 -16 -32 -35 -49 -19 -17 -35 -34 -35 -38 0 -13 -56 -75 -68 -75
-7 0 -11 -3 -8 -8 8 -14 -23 -45 -39 -38 -11 4 -19 -2 -25 -20 -6 -14 -15 -22
-21 -19 -5 4 -26 -9 -45 -29 -28 -29 -40 -35 -60 -30 -17 4 -24 2 -24 -8 0
-20 -32 -44 -53 -40 -12 2 -20 -4 -24 -17 -3 -12 -10 -21 -16 -21 -6 0 -18 -7
-27 -15 -9 -8 -34 -16 -55 -19 -22 -3 -41 -10 -43 -16 -2 -5 -16 -10 -32 -10
-15 0 -34 -7 -41 -17 -8 -9 -27 -22 -44 -29 -21 -9 -24 -13 -11 -14 15 0 16
-3 7 -14 -7 -8 -19 -13 -29 -11 -9 1 -11 0 -4 -2 22 -8 11 -18 -59 -52 -53
-25 -73 -31 -82 -22 -6 6 -15 11 -21 11 -6 0 -5 -5 2 -12 17 -17 15 -28 -6
-28 -10 0 -23 -5 -29 -11 -15 -15 -83 -19 -107 -7 -15 8 -17 17 -12 49 4 22 2
39 -3 39 -5 0 -11 12 -13 28 -2 19 -8 26 -20 24 -21 -3 -24 13 -5 22 10 5 10
7 0 12 -17 8 -16 33 1 40 15 6 10 44 -7 56 -6 3 -11 15 -12 25 -3 31 -27 138
-34 148 -3 6 -7 19 -8 30 -6 50 -16 84 -24 79 -15 -9 -22 25 -9 41 7 8 8 15 3
15 -23 0 -68 194 -49 209 12 10 13 10 166 15 58 2 113 7 123 11 9 4 29 4 43 1
16 -4 23 -3 19 3 -3 6 7 13 22 16 15 3 56 12 90 20 34 8 79 15 100 15 22 0 43
3 46 7 4 3 24 8 44 10 21 2 40 7 43 12 3 4 39 17 80 30 41 12 84 26 95 31 11
4 36 14 55 21 19 7 43 21 53 31 10 10 27 18 37 18 11 0 20 4 20 10 0 5 11 12
25 16 13 3 29 12 36 20 7 8 21 11 35 8 14 -4 24 -2 24 5 0 12 51 61 63 61 17
0 77 56 77 72 0 9 23 40 50 67 28 28 50 59 50 71 0 11 5 20 10 20 6 0 16 11
22 25 14 30 19 31 41 5z m-7513 -15 c0 -5 -5 -10 -12 -10 -7 0 -15 -11 -18
-25 -3 -14 -11 -25 -18 -24 -7 1 -25 2 -42 3 -23 1 -30 6 -30 22 0 16 5 20 19
16 12 -3 27 3 37 15 18 19 65 22 64 3z m153 -65 c5 -20 -22 -89 -35 -90 -10 0
-11 94 -1 103 13 13 31 7 36 -13z m50 6 c16 -12 16 -14 1 -27 -14 -11 -18 -10
-30 5 -23 32 -3 46 29 22z m-127 -61 c15 -14 25 -25 23 -26 -2 0 -14 -2 -27
-5 -12 -2 -33 -11 -45 -19 -31 -20 -61 -9 -75 27 -11 30 -11 30 18 25 19 -4
30 -2 34 8 8 23 42 18 72 -10z m179 -76 c-3 -4 -13 -5 -23 -2 -10 2 -24 -3
-31 -11 -20 -24 -33 -19 -29 11 2 22 10 29 33 34 29 5 60 -14 50 -32z m-100
-52 c12 -13 15 -21 7 -26 -20 -12 7 -81 32 -81 8 0 16 -9 19 -21 4 -16 3 -18
-8 -9 -8 7 -19 9 -24 6 -16 -10 -1 -36 22 -36 11 0 18 -2 15 -5 -3 -4 -35 -1
-72 6 -60 10 -66 13 -66 35 0 21 4 24 28 22 25 -3 27 0 27 32 0 35 0 35 -47
38 -27 2 -48 7 -48 13 0 5 -7 9 -15 9 -21 0 -19 28 3 33 42 10 109 1 127 -16z
m85 -37 c0 -5 -4 -10 -10 -10 -5 0 -10 5 -10 10 0 6 5 10 10 10 6 0 10 -4 10
-10z m60 -114 c0 -8 -7 -16 -15 -20 -15 -5 -21 14 -8 27 11 12 23 8 23 -7z
m-107 -67 c30 1 37 -2 37 -18 0 -47 -69 -54 -101 -10 -25 35 -24 43 4 34 12
-4 39 -7 60 -6z m149 -54 c0 -5 -5 -11 -11 -13 -6 -2 -11 4 -11 13 0 9 5 15
11 13 6 -2 11 -8 11 -13z m-152 -60 c13 -12 23 -13 44 -5 40 15 46 13 46 -15
0 -17 -8 -29 -25 -37 -21 -9 -29 -7 -60 16 -19 15 -35 34 -35 42 0 18 9 18 30
-1z m5510 -61 c8 -2 16 -16 16 -31 4 -90 15 -168 24 -171 7 -3 8 -27 4 -69 -6
-60 -6 -64 12 -61 13 2 18 -2 15 -12 -8 -26 0 -175 10 -184 5 -6 9 -20 9 -32
0 -12 7 -27 15 -34 8 -7 15 -21 15 -31 0 -11 7 -19 15 -19 8 0 15 -4 15 -10 0
-5 -7 -10 -15 -10 -8 0 -15 -4 -15 -10 0 -5 9 -10 21 -10 17 0 20 -4 15 -24
-3 -14 -2 -28 4 -31 7 -4 6 -13 -1 -27 -6 -11 -8 -33 -5 -49 3 -15 1 -31 -5
-34 -5 -4 -7 -15 -4 -26 5 -16 1 -19 -27 -21 -18 0 -43 0 -55 1 -12 1 -24 -3
-28 -9 -9 -15 -42 -12 -82 7 -24 11 -37 13 -42 5 -3 -6 -40 -13 -81 -17 -186
-15 -168 -16 -179 16 -11 32 -26 38 -35 13 -8 -20 -26 -8 -26 17 0 11 5 17 10
14 15 -9 12 8 -5 31 -8 10 -15 29 -15 41 0 12 -4 25 -10 28 -5 3 -10 15 -10
26 0 10 -5 19 -11 19 -7 0 -9 -10 -7 -25 8 -39 -10 -29 -21 13 -16 54 -14 70
4 46 14 -19 14 -19 15 3 0 12 -4 25 -10 28 -5 3 -10 19 -10 36 0 29 -14 39
-23 17 -3 -7 -3 3 0 22 7 45 10 47 35 31 25 -15 48 0 31 21 -13 17 -15 76 -2
84 6 3 19 -2 31 -12 19 -18 20 -18 34 0 15 22 10 36 -14 36 -16 1 -16 1 0 10
9 6 14 18 11 29 -3 11 2 21 11 24 9 4 16 17 16 31 0 13 5 26 10 28 6 2 17 26
24 54 l13 50 -29 -4 c-22 -3 -27 -1 -22 11 6 16 -21 77 -39 88 -13 9 0 27 37
50 25 16 27 19 11 19 -12 0 -26 -5 -33 -12 -9 -9 -16 -9 -29 4 -15 16 -15 17
4 12 12 -3 23 -1 27 4 6 9 342 15 376 6z m-5374 -49 c4 -8 12 -15 20 -15 38 0
-9 -69 -47 -70 -21 0 -98 60 -98 78 -1 17 18 15 25 -3 9 -23 51 -19 57 5 6 23
35 27 43 5z m-34 -137 c4 -32 62 -38 78 -9 6 12 15 21 20 21 15 0 12 -30 -4
-36 -8 -3 -16 -14 -19 -25 -6 -23 -42 -26 -51 -4 -3 8 -12 15 -20 15 -9 0 -20
9 -26 20 -6 11 -15 18 -21 15 -5 -4 -9 -2 -9 3 0 30 48 30 52 0z m38 -123 c19
-23 1 -39 -21 -19 -10 9 -19 21 -19 26 0 13 27 9 40 -7z m80 -14 c14 -27 13
-28 -15 -47 -29 -19 -52 -10 -30 12 8 9 15 24 15 35 0 25 16 25 30 0z m-24
-139 c-9 -9 -36 13 -36 30 0 19 1 19 19 -3 11 -13 18 -25 17 -27z m11 -92 c9
-13 9 -21 2 -26 -12 -7 -29 13 -29 34 0 18 14 15 27 -8z m11630 -1037 c-4 -19
5 -50 28 -97 36 -75 36 -93 0 -102 -17 -4 -22 -11 -18 -22 5 -15 4 -15 -13 1
-13 12 -15 20 -8 25 13 8 25 62 14 62 -4 0 -11 -7 -14 -16 -3 -8 -10 -13 -16
-9 -14 9 -31 77 -21 89 4 6 11 23 15 39 5 20 3 27 -9 27 -8 0 -15 5 -15 11 0
6 7 9 15 6 8 -4 17 -2 20 3 13 21 27 9 22 -17z m-12 -353 c-3 -5 -10 -10 -16
-10 -5 0 -9 5 -9 10 0 6 7 10 16 10 8 0 12 -4 9 -10z m-5 -60 c0 -5 -4 -10 -9
-10 -6 0 -13 5 -16 10 -3 6 1 10 9 10 9 0 16 -4 16 -10z m52 -32 c-13 -13 -32
-2 -32 18 0 12 4 13 21 3 14 -7 18 -14 11 -21z m33 -28 c-5 -8 -11 -8 -17 -2
-6 6 -7 16 -3 22 5 8 11 8 17 2 6 -6 7 -16 3 -22z m-35 -16 c0 -13 -12 -18
-32 -15 -18 2 -19 -49 -1 -75 l18 -28 5 29 c3 17 2 32 -2 33 -4 2 -8 8 -8 14
0 7 5 6 14 -1 11 -9 15 -9 19 1 2 7 8 10 12 6 4 -4 0 -14 -9 -24 -12 -12 -14
-20 -6 -29 14 -17 22 -105 9 -105 -5 0 -9 7 -9 16 0 8 -4 13 -9 9 -6 -3 -15 4
-21 15 -6 11 -17 20 -25 20 -9 0 -15 10 -15 25 0 14 -5 25 -11 25 -14 0 -4 43
16 74 17 25 55 32 55 10z m-20 -179 c0 -8 7 -15 15 -15 8 0 15 -5 15 -11 0 -6
9 -9 19 -6 14 3 18 1 14 -9 -3 -8 0 -21 6 -28 8 -9 8 -16 2 -20 -7 -4 -7 -15
-1 -31 10 -27 2 -93 -13 -113 -8 -10 -7 -16 6 -23 17 -10 23 -40 10 -53 -5 -4
-8 -13 -8 -18 0 -6 -6 -13 -12 -15 -9 -3 -12 5 -9 27 3 23 -2 35 -15 43 -11 7
-19 20 -19 29 0 10 -4 18 -10 18 -5 0 -10 7 -10 15 0 13 7 15 35 9 19 -3 35
-4 35 -2 0 3 -12 18 -26 33 -23 25 -26 35 -22 76 3 27 1 46 -3 43 -5 -3 -18 4
-30 15 -18 17 -20 23 -9 36 16 19 30 19 30 0z m15 -345 c-4 -6 5 -10 19 -10
16 0 26 -6 26 -14 0 -8 3 -21 6 -30 4 -11 1 -16 -10 -16 -9 0 -16 -7 -16 -16
0 -13 3 -14 13 -5 8 6 17 8 20 4 13 -12 7 -54 -8 -59 -19 -8 -20 -24 -1 -24
19 0 31 -57 16 -75 -9 -11 -6 -14 17 -17 27 -3 28 -5 29 -63 1 -33 -4 -81 -9
-108 -9 -38 -8 -54 6 -81 22 -47 13 -78 -22 -70 -39 10 -50 24 -17 24 15 0 25
4 21 10 -3 6 -15 10 -26 10 -10 0 -19 5 -19 10 0 6 9 10 20 10 19 0 18 3 -11
40 -25 31 -30 45 -26 69 6 26 2 33 -21 45 l-27 14 28 7 c20 5 27 13 27 30 0
13 -5 27 -11 31 -7 4 -9 23 -6 48 6 41 -11 92 -41 129 -14 15 -13 17 2 17 9 0
14 5 11 10 -4 6 -12 7 -18 3 -7 -3 -3 3 7 15 18 21 18 23 3 40 -22 24 -21 32
4 32 11 0 17 -4 14 -10z m125 -450 c0 -5 -5 -10 -11 -10 -5 0 -7 5 -4 10 3 6
8 10 11 10 2 0 4 -4 4 -10z m0 -191 c0 -23 -21 -69 -31 -69 -4 0 -9 -26 -11
-57 -3 -58 -3 -58 -17 -28 -7 17 -12 46 -11 65 1 19 2 55 2 78 0 38 3 43 19
39 11 -3 19 0 19 5 0 6 6 5 15 -2 8 -7 15 -21 15 -31z m-178 -643 c-2 -4 -14
2 -26 13 -18 18 -19 23 -7 31 11 6 18 2 26 -13 7 -12 10 -26 7 -31z"/>
<path d="M7241 17714 c0 -11 3 -14 6 -6 3 7 2 16 -1 19 -3 4 -6 -2 -5 -13z"/>
<path d="M7144 17705 c-9 -22 1 -29 15 -11 8 10 9 16 1 21 -5 3 -13 -1 -16
-10z"/>
<path d="M7835 16250 c3 -5 10 -10 16 -10 5 0 9 5 9 10 0 6 -7 10 -16 10 -8 0
-12 -4 -9 -10z"/>
<path d="M8610 12706 c0 -20 26 -56 41 -56 10 0 21 -5 24 -10 4 -6 11 -8 16
-5 5 4 5 11 -1 18 -6 7 -16 19 -23 28 -11 16 -57 36 -57 25z"/>
<path d="M8395 12661 c-6 -11 1 -16 40 -25 29 -7 29 -7 11 13 -20 22 -41 27
-51 12z"/>
<path d="M10000 12620 c0 -5 5 -10 11 -10 5 0 7 5 4 10 -3 6 -8 10 -11 10 -2
0 -4 -4 -4 -10z"/>
<path d="M8162 12410 c7 -11 16 -20 20 -20 5 0 3 9 -4 20 -7 11 -16 20 -20 20
-5 0 -3 -9 4 -20z"/>
<path d="M8033 12395 c0 -15 7 -27 17 -30 10 -3 21 -12 24 -20 3 -8 12 -15 21
-15 8 0 15 -5 15 -11 0 -14 30 -38 48 -39 6 0 12 11 12 25 0 18 -7 28 -24 35
-13 4 -33 20 -44 34 -13 17 -26 24 -36 20 -11 -4 -16 -1 -16 10 0 9 -4 16 -9
16 -5 0 -8 -11 -8 -25z"/>
<path d="M7674 11754 c7 -51 -4 -56 -33 -16 l-20 27 -28 -35 c-15 -19 -39 -46
-54 -60 -21 -20 -24 -29 -15 -42 17 -27 -8 -47 -31 -26 -16 14 -21 15 -37 3
-16 -12 -17 -17 -5 -31 11 -14 11 -17 -4 -25 -21 -12 -22 -29 -2 -29 19 0 20
-16 1 -27 -34 -20 -40 -98 -12 -164 5 -10 1 -19 -8 -22 -25 -10 -22 -93 4
-107 11 -6 20 -17 20 -26 0 -13 4 -13 28 0 15 7 42 17 60 21 36 7 43 35 17 69
-19 25 -19 60 0 76 8 7 15 20 15 29 0 11 16 23 43 32 44 17 60 47 37 73 -6 8
-10 27 -10 42 4 124 1 116 32 110 49 -10 63 8 63 77 -1 73 -6 83 -41 90 -26 5
-26 4 -20 -39z"/>
<path d="M10190 11640 c0 -5 5 -10 11 -10 5 0 7 5 4 10 -3 6 -8 10 -11 10 -2
0 -4 -4 -4 -10z"/>
<path d="M9700 11505 c0 -8 7 -15 15 -15 8 0 15 7 15 15 0 8 -7 15 -15 15 -8
0 -15 -7 -15 -15z"/>
<path d="M6930 11417 c0 -27 13 -36 26 -16 3 6 -1 18 -10 27 -15 15 -16 14
-16 -11z"/>
<path d="M7465 11110 c-8 -14 13 -22 31 -12 14 8 14 10 -5 15 -11 3 -23 1 -26
-3z"/>
<path d="M8330 10974 c0 -8 5 -12 10 -9 6 3 10 10 10 16 0 5 -4 9 -10 9 -5 0
-10 -7 -10 -16z"/>
<path d="M8002 10929 c2 -6 8 -10 13 -10 5 0 11 4 13 10 2 6 -4 11 -13 11 -9
0 -15 -5 -13 -11z"/>
<path d="M7850 10921 c0 -5 9 -7 20 -4 11 3 20 7 20 9 0 2 -9 4 -20 4 -11 0
-20 -4 -20 -9z"/>
<path d="M6720 15555 c0 -16 16 -20 24 -6 3 5 -1 11 -9 15 -9 3 -15 0 -15 -9z"/>
<path d="M10636 13563 c-12 -12 -6 -33 9 -33 8 0 15 6 15 14 0 17 -14 28 -24
19z"/>
<path d="M10737 13464 c-9 -10 12 -44 27 -44 12 0 31 29 24 35 -9 8 -46 14
-51 9z"/>
<path d="M10794 13347 c3 -6 9 -20 12 -30 8 -21 33 -19 48 5 13 21 10 23 -32
31 -25 5 -32 4 -28 -6z"/>
<path d="M8955 9890 c3 -5 8 -10 11 -10 2 0 4 5 4 10 0 6 -5 10 -11 10 -5 0
-7 -4 -4 -10z"/>
<path d="M8740 9840 c0 -5 5 -10 10 -10 6 0 10 5 10 10 0 6 -4 10 -10 10 -5 0
-10 -4 -10 -10z"/>
<path d="M8605 4761 c-3 -5 -1 -12 5 -16 5 -3 10 1 10 9 0 18 -6 21 -15 7z"/>
<path d="M7725 3650 c-3 -5 1 -10 9 -10 9 0 16 5 16 10 0 6 -4 10 -9 10 -6 0
-13 -4 -16 -10z"/>
<path d="M7688 3633 c7 -3 16 -2 19 1 4 3 -2 6 -13 5 -11 0 -14 -3 -6 -6z"/>
<path d="M6560 3625 c0 -9 5 -15 11 -13 6 2 11 8 11 13 0 5 -5 11 -11 13 -6 2
-11 -4 -11 -13z"/>
<path d="M13235 2579 c-12 -19 5 -23 22 -6 16 16 16 17 1 17 -9 0 -20 -5 -23
-11z"/>
<path d="M13305 1620 c3 -5 8 -10 11 -10 2 0 4 5 4 10 0 6 -5 10 -11 10 -5 0
-7 -4 -4 -10z"/>
<path d="M13141 10344 c0 -11 3 -14 6 -6 3 7 2 16 -1 19 -3 4 -6 -2 -5 -13z"/>
</g>
</svg>
