<?xml version="1.0" encoding="iso-8859-1"?>
<!-- Uploaded to: SVG Repo, www.svgrepo.com, Generator: SVG Repo Mixer Tools -->
<svg height="800px" width="800px" version="1.1" id="Layer_1" xmlns="http://www.w3.org/2000/svg" xmlns:xlink="http://www.w3.org/1999/xlink" 
	 viewBox="0 0 512.001 512.001" xml:space="preserve">
<polygon style="fill:#D35B38;" points="256,69.582 187.263,173.845 324.739,173.845 "/>
<polygon style="fill:#FFAD61;" points="324.739,173.845 187.263,173.845 128.091,263.598 383.911,263.598 "/>
<polygon style="fill:#BCC987;" points="69.591,352.331 10.199,442.418 501.801,442.418 442.409,352.331 "/>
<polygon style="fill:#FFE6B8;" points="383.911,263.598 128.091,263.598 69.591,352.331 442.409,352.331 "/>
<g>
	<path style="fill:#4D3D36;" d="M1.684,436.805c-2.065,3.132-2.244,7.146-0.465,10.449s5.228,5.364,8.98,5.364h491.602
		c3.752,0,7.202-2.06,8.98-5.364c1.779-3.304,1.6-7.317-0.465-10.449L264.516,63.968c-1.887-2.863-5.086-4.586-8.515-4.586
		c-3.429,0-6.628,1.723-8.515,4.586L1.684,436.805z M379.115,432.219l62.525-62.525l20.146,30.559l-31.966,31.966L379.115,432.219
		L379.115,432.219z M303.749,432.219l19.64-19.64c3.983-3.983,3.983-10.441,0-14.425c-3.984-3.982-10.44-3.982-14.425,0
		L274.9,432.218h-45.713l68.703-68.703c0.312-0.312,0.592-0.645,0.855-0.985h121.21l-69.688,69.688h-46.519V432.219z
		 M153.821,432.219l68.703-68.703c0.312-0.312,0.592-0.645,0.855-0.985h46.648l-69.688,69.688H153.821z M78.238,432.219
		l68.703-68.703c0.312-0.312,0.592-0.645,0.855-0.985h46.863l-69.688,69.688H78.238z M213.819,253.399l-40.252-40.252l16.297-24.719
		l64.971,64.971L213.819,253.399L213.819,253.399z M283.684,253.399l-69.355-69.355h40.154c0.286,0.378,0.59,0.748,0.934,1.092
		l68.262,68.262H283.684z M352.529,253.399l-69.355-69.355h36.073l45.724,69.355H352.529z M256,88.112l49.798,75.535h-99.595
		L256,88.112z M162.105,230.533l22.866,22.866h-37.94L162.105,230.533z M133.582,273.797h244.837l45.051,68.335H88.531
		L133.582,273.797z M75.083,362.53h43.995L49.39,432.219H29.139L75.083,362.53z M458.669,432.219l14.58-14.58l9.612,14.58H458.669z"
		/>
	<path style="fill:#4D3D36;" d="M345.826,375.717c-3.984-3.982-10.44-3.982-14.425,0l-1.02,1.02c-3.983,3.983-3.983,10.441,0,14.425
		c1.992,1.991,4.602,2.987,7.212,2.987c2.61,0,5.22-0.996,7.212-2.987l1.02-1.02C349.809,386.158,349.809,379.7,345.826,375.717z"/>
</g>
</svg>